<svg width="151" height="154" viewBox="0 0 151 154" fill="none" xmlns="http://www.w3.org/2000/svg">
<ellipse opacity="0.8" cx="72.4145" cy="72.195" rx="72.4145" ry="72.195" transform="matrix(0.00360029 0.999994 0.999994 -0.00360029 2.91113 0.529541)" fill="#E29F5B"/>
<path d="M33.0035 111.38C66.3221 148.051 138.235 69.5374 124.629 22.7791C102.455 8.84314 66.9186 3.13115 45.3977 9.04854C29.1759 18.5479 58.9155 31.4093 58.955 42.3752C77.1404 80.2692 22.0708 111.419 33.0035 111.38Z" fill="#F58C11"/>
<path d="M60.6587 69.4178C31.8295 10.2252 21.2166 70.9334 15.8343 80.4782C46.5908 52.3358 38.0986 127.839 59.7155 133.394C78.4987 133.204 83.0236 116.429 88.4059 106.884C93.7882 97.339 49.082 113.259 60.6587 69.4178Z" fill="#DFBEBE"/>
<path d="M98.0577 35.7989C69.2285 -23.3937 66.0411 59.873 60.6587 69.4178C91.4152 41.2754 72.0894 129.665 93.7063 135.22C83.4594 41.0366 124.514 98.9564 129.896 89.4116C135.278 79.8667 107.574 41.1978 98.0577 35.7989Z" fill="#182933"/>
</svg>
