<svg width="75" height="70" viewBox="0 0 75 70" fill="none" xmlns="http://www.w3.org/2000/svg">
<path d="M4.86899 22.4592C-5.83743 46.0105 46.6654 64.285 66.2798 48.1046C68.3841 34.5926 63.7853 16.371 56.5035 7.2721C48.5981 1.45419 48.5713 18.3723 43.3205 20.6556C28.9028 37.2018 2.59256 17.2244 4.86899 22.4592Z" fill="#D9D9D9"/>
<path d="M35.3591 25.6824C57.7931 -0.366401 26.4876 7.08006 20.7987 6.46982C40.6462 15.4084 2.68359 26.9269 4.48337 38.4409C8.45306 47.4096 17.4323 46.1155 23.1212 46.7258C28.81 47.336 11.9436 29.1836 35.3591 25.6824Z" fill="#DFBEBE"/>
<path d="M59.2046 36.6757C81.6385 10.6269 41.048 26.2926 35.3591 25.6824C55.2065 34.621 8.82668 43.6051 10.6265 55.119C53.6782 30.7563 34.3791 62.4051 40.068 63.0153C45.7569 63.6256 58.5804 42.3542 59.2046 36.6757Z" fill="#182933"/>
</svg>
