<svg width="168" height="162" viewBox="0 0 168 162" fill="none" xmlns="http://www.w3.org/2000/svg">
<path opacity="0.5" d="M50.6292 128.826C8.33321 97.1746 85.3453 13.7929 136.545 23.6807C153.517 45.7465 162.975 82.6965 158.693 105.97C150.086 123.994 133.545 93.8433 121.836 94.8495C79.6657 79.2824 51.6208 140.366 50.6292 128.826Z" fill="#F58C11"/>
<g opacity="0.5">
<path d="M92.8542 95.397C158.955 119.948 94.9378 136.892 85.2217 143.45C112.47 108.508 32.4098 124.647 24.4292 102.517C22.8672 82.8068 40.407 76.4554 50.1231 69.898C59.8391 63.3406 46.9913 111.735 92.8542 95.397Z" fill="#DFBEBE"/>
<path d="M125.343 52.9669C191.444 77.5182 102.57 88.8396 92.8542 95.397C120.102 60.4557 27.2594 89.1871 19.2788 67.0568C121.106 68.7735 55.2195 31.2837 64.9356 24.7263C74.6516 18.1689 118.667 43.508 125.343 52.9669Z" fill="#182933"/>
</g>
</svg>
