<svg width="97" height="56" viewBox="0 0 97 56" fill="none" xmlns="http://www.w3.org/2000/svg">
<ellipse opacity="0.8" cx="45.4512" cy="28.0396" rx="27.4513" ry="26.9528" fill="#E29F5B"/>
<path d="M60.0624 12.1722C74.0094 24.5618 44.3443 51.5146 26.6005 46.498C21.2874 38.2383 19.0736 24.9793 21.2874 16.9369C24.8663 10.868 29.7824 21.9534 33.9394 21.9534C48.3292 28.6917 60.0624 8.09064 60.0624 12.1722Z" fill="#F58C11"/>
<path d="M44.1932 22.5532C21.7149 11.8699 44.7139 7.8262 48.3248 5.80398C37.6985 17.3241 66.3086 14.0523 68.444 22.1151C68.3977 29.1277 62.0447 30.8395 58.4337 32.8617C54.8228 34.8839 60.7967 18.1723 44.1932 22.5532Z" fill="#DFBEBE"/>
<path d="M31.4999 36.5606C9.02161 25.8773 40.5822 24.5754 44.1932 22.5532C33.5668 34.0734 67.0474 26.7396 69.1827 34.8024C33.4654 31.1035 55.4779 46.3525 51.8669 48.3748C48.256 50.397 33.5595 40.106 31.4999 36.5606Z" fill="#182933"/>
<path d="M20.25 34.08C19.95 34.34 19.53 34.6 18.99 34.86C18.45 35.12 17.84 35.35 17.16 35.55C16.5 35.75 15.82 35.91 15.12 36.03C14.42 36.17 13.76 36.24 13.14 36.24C11.38 36.24 9.8 35.97 8.4 35.43C7 34.89 5.8 34.14 4.8 33.18C3.8 32.22 3.03 31.1 2.49 29.82C1.97 28.52 1.71 27.11 1.71 25.59C1.71 23.73 2.01 22.08 2.61 20.64C3.21 19.2 4.02 17.99 5.04 17.01C6.08 16.01 7.27 15.26 8.61 14.76C9.97 14.24 11.39 13.98 12.87 13.98C14.17 13.98 15.37 14.13 16.47 14.43C17.59 14.73 18.55 15.12 19.35 15.6L18.3 18.54C17.9 18.32 17.4 18.11 16.8 17.91C16.22 17.69 15.62 17.52 15 17.4C14.38 17.28 13.81 17.22 13.29 17.22C12.01 17.22 10.86 17.41 9.84 17.79C8.84 18.15 7.98 18.68 7.26 19.38C6.54 20.08 5.98 20.93 5.58 21.93C5.2 22.93 5.01 24.06 5.01 25.32C5.01 26.46 5.21 27.51 5.61 28.47C6.01 29.41 6.57 30.23 7.29 30.93C8.01 31.61 8.87 32.14 9.87 32.52C10.87 32.88 11.98 33.06 13.2 33.06C13.9 33.06 14.59 32.99 15.27 32.85C15.95 32.71 16.53 32.51 17.01 32.25V28.29H12.81V25.2H20.25V34.08ZM64.8244 36L74.3944 13.35H74.5744L84.1444 36H80.4844L73.5244 18.36L75.8344 16.83L67.9744 36H64.8244ZM70.6444 27.84H78.3844L79.4944 30.6H69.6844L70.6444 27.84ZM90.1202 23.43L90.4202 27.03L90.2702 26.55C90.6102 25.79 91.0902 25.14 91.7102 24.6C92.3302 24.06 92.9702 23.65 93.6302 23.37C94.3102 23.07 94.8802 22.92 95.3402 22.92L95.1902 25.98C94.2302 25.92 93.3902 26.1 92.6702 26.52C91.9702 26.94 91.4202 27.5 91.0202 28.2C90.6202 28.9 90.4202 29.65 90.4202 30.45V36H87.3602V23.43H90.1202Z" fill="black"/>
<path d="M30.2372 36.3C29.0572 36.3 27.9872 36.06 27.0272 35.58C26.0672 35.08 25.3072 34.34 24.7472 33.36C24.1872 32.38 23.9072 31.17 23.9072 29.73C23.9072 28.31 24.1972 27.09 24.7772 26.07C25.3772 25.05 26.1572 24.27 27.1172 23.73C28.0972 23.17 29.1572 22.89 30.2972 22.89C31.4972 22.89 32.4772 23.15 33.2372 23.67C34.0172 24.17 34.6272 24.76 35.0672 25.44L34.8572 25.92L35.1572 23.43H38.0072V36H34.9172V32.85L35.2472 33.6C35.1672 33.76 34.9972 33.99 34.7372 34.29C34.4772 34.57 34.1272 34.87 33.6872 35.19C33.2672 35.51 32.7672 35.78 32.1872 36C31.6272 36.2 30.9772 36.3 30.2372 36.3ZM31.0772 33.78C31.7372 33.78 32.3272 33.66 32.8472 33.42C33.3672 33.18 33.8072 32.84 34.1672 32.4C34.5272 31.96 34.7772 31.44 34.9172 30.84V28.23C34.7572 27.67 34.4872 27.19 34.1072 26.79C33.7272 26.37 33.2672 26.04 32.7272 25.8C32.2072 25.56 31.6272 25.44 30.9872 25.44C30.2672 25.44 29.6072 25.62 29.0072 25.98C28.4072 26.32 27.9272 26.8 27.5672 27.42C27.2072 28.04 27.0272 28.76 27.0272 29.58C27.0272 30.36 27.2072 31.07 27.5672 31.71C27.9472 32.35 28.4472 32.86 29.0672 33.24C29.6872 33.6 30.3572 33.78 31.0772 33.78ZM42.7411 12.69H45.8311V36H42.7411V12.69ZM56.4441 36.3C54.9841 36.3 53.7341 36.02 52.6941 35.46C51.6541 34.88 50.8541 34.09 50.2941 33.09C49.7341 32.07 49.4541 30.91 49.4541 29.61C49.4541 28.37 49.7641 27.25 50.3841 26.25C51.0241 25.23 51.8741 24.42 52.9341 23.82C54.0141 23.22 55.2041 22.92 56.5041 22.92C58.1841 22.92 59.5741 23.41 60.6741 24.39C61.7941 25.37 62.5441 26.74 62.9241 28.5L52.6941 32.04L51.9741 30.24L60.1641 27.3L59.5341 27.69C59.2941 27.07 58.9141 26.53 58.3941 26.07C57.8741 25.59 57.1641 25.35 56.2641 25.35C55.5441 25.35 54.8941 25.53 54.3141 25.89C53.7541 26.23 53.3041 26.71 52.9641 27.33C52.6441 27.93 52.4841 28.64 52.4841 29.46C52.4841 30.3 52.6541 31.04 52.9941 31.68C53.3541 32.3 53.8341 32.79 54.4341 33.15C55.0541 33.51 55.7441 33.69 56.5041 33.69C57.0441 33.69 57.5541 33.59 58.0341 33.39C58.5341 33.19 59.0041 32.94 59.4441 32.64L60.8541 34.92C60.1941 35.34 59.4741 35.68 58.6941 35.94C57.9341 36.18 57.1841 36.3 56.4441 36.3Z" fill="white"/>
</svg>
